<?xml version="1.0" encoding="utf-8"?>
<!-- Generator: Adobe Illustrator 27.7.0, SVG Export Plug-In . SVG Version: 6.00 Build 0)  -->
<svg version="1.1" id="Camada_1" xmlns="http://www.w3.org/2000/svg" xmlns:xlink="http://www.w3.org/1999/xlink" x="0px" y="0px"
	 viewBox="0 0 595.3 250" style="enable-background:new 0 0 595.3 250;" xml:space="preserve">
<style type="text/css">
	.st0{display:none;opacity:0.56;}
	.st1{display:none;}
	.st2{display:inline;fill:none;stroke:#010202;stroke-miterlimit:10;}
	.st3{fill:none;}
	.st4{fill:#FFFFFF;}
</style>
<g id="Camada_1_00000116953192837398907290000017083019357781455784_" class="st0">
	
		<image style="display:inline;overflow:visible;enable-background:new    ;" width="1025" height="1025" xlink:href="AA29A8B3.jpg"  transform="matrix(0.31 0 0 0.31 138.8872 -23.9574)">
	</image>
</g>
<g id="Camada_2_00000109751066589400239030000006400203310737211548_" class="st1">
	<circle class="st2" cx="297.3" cy="127.8" r="30.3"/>
	<circle class="st2" cx="298.3" cy="138.2" r="9.7"/>
	<circle class="st2" cx="297.3" cy="127.8" r="44.5"/>
	<line class="st2" x1="229.4" y1="124.8" x2="397" y2="124.8"/>
	<line class="st2" x1="229.4" y1="130.8" x2="397" y2="130.8"/>
	<line class="st2" x1="300.2" y1="36.3" x2="300.2" y2="204"/>
	<line class="st2" x1="294.2" y1="36.3" x2="294.2" y2="204"/>
	<line class="st2" x1="237.4" y1="83" x2="356" y2="201.5"/>
	<line class="st2" x1="249" y1="75.1" x2="367.6" y2="193.7"/>
	<line class="st2" x1="237.3" y1="93.2" x2="355.8" y2="211.7"/>
	<line class="st2" x1="326.2" y1="194.8" x2="360.6" y2="159.7"/>
</g>
<g id="Camada_3">
	<line class="st3" x1="295.9" y1="99.4" x2="295.9" y2="99.4"/>
	<path class="st4" d="M281.7,34.3v19.6c-8.3,0.8-15.9,4.1-22.1,9.1c-4.9,4-8.9,9.2-11.6,15c-1.6,3.4-2.7,7.1-3.3,11
		c-0.1,0.7-0.2,1.4-0.3,2.1h-19.7c0.4-6.3,1.8-12.4,4-18c1.3-3.3,2.9-6.5,4.7-9.6c3.3-5.4,7.4-10.3,12.2-14.5
		C255.4,40.6,267.9,35.2,281.7,34.3z"/>
	<path class="st4" d="M281.7,136.6v19.7c-30.5-2-54.9-26.4-56.9-56.9h19.7C246.4,119.1,262,134.7,281.7,136.6z"/>
	<path class="st4" d="M307.9,152.3c-5.7,2.2-11.7,3.6-18.1,4v-19.7c0.7-0.1,1.5-0.2,2.2-0.3L307.9,152.3z"/>
	<line class="st3" x1="295.9" y1="99.4" x2="295.9" y2="99.4"/>
	<path class="st4" d="M346.9,91.2h-19.7c-1.9-19.7-17.6-35.4-37.3-37.3V34.3C320.4,36.2,344.8,60.6,346.9,91.2z"/>
	<line class="st3" x1="295.9" y1="99.4" x2="295.9" y2="99.4"/>
	<path class="st4" d="M354.5,157.9l-13.2,13.5l-23.8-23.8L303,133.1l-11-11c-0.7,0.3-1.4,0.5-2.1,0.6c-0.8,0.2-1.7,0.3-2.6,0.3
		c-2,0-3.9-0.4-5.6-1.2c-4.6-2.1-7.8-6.7-7.8-12.1c0-1.7,0.3-3.3,0.9-4.7c0.8-2.1,2.2-4,3.9-5.5c0.9-0.8,1.9-1.4,3-1.9
		c1.7-0.8,3.6-1.2,5.6-1.2c0.9,0,1.8,0.1,2.6,0.3c2.3,0.4,4.3,1.5,6,2.9c0.2,0.1,0.3,0.2,0.4,0.4l0.4,0.4l21.4,21.4
		c5-6.2,8.3-13.8,9.1-22.1h19.7c-0.9,13.8-6.4,26.3-14.9,36L354.5,157.9z"/>
	<g>
		<path class="st4" d="M209.3,188.5l-4.4,6.1c-1.6-1.1-3.3-1.7-5-1.7s-3,0.5-4,1.6c-1,1-1.5,2.3-1.5,3.9c0,1.1,0.2,2,0.7,2.8
			s1.1,1.5,1.9,1.9c0.8,0.5,1.7,0.7,2.8,0.7c0.9,0,1.9-0.2,2.9-0.5c1.1-0.4,2-0.9,2.8-1.5l4.1,6c-1.3,1.2-2.8,2.1-4.5,2.7
			c-1.7,0.6-3.5,0.9-5.4,0.9c-2.6,0-5-0.6-7.2-1.7c-2.2-1.1-3.9-2.7-5.1-4.7c-1.2-2-1.9-4.2-1.9-6.7s0.6-4.7,1.9-6.7
			c1.2-2,2.9-3.5,5.1-4.7c2.2-1.1,4.6-1.7,7.3-1.7c1.8,0,3.5,0.3,5.1,0.8C206.7,186.6,208.1,187.4,209.3,188.5z"/>
		<path class="st4" d="M230.9,197.4c0.9,1.4,1.4,3,1.4,4.7s-0.5,3.3-1.4,4.7s-2.2,2.6-3.8,3.4c-1.7,0.8-3.5,1.2-5.6,1.2
			s-4-0.4-5.6-1.2s-2.9-2-3.8-3.4c-0.9-1.4-1.4-3-1.4-4.7s0.5-3.3,1.4-4.7s2.2-2.6,3.8-3.4c1.6-0.8,3.5-1.2,5.6-1.2s4,0.4,5.6,1.2
			S230,196,230.9,197.4z M218.6,202.1c0,0.8,0.3,1.5,0.8,2.1s1.2,0.9,2.1,0.9s1.6-0.3,2.1-0.9c0.5-0.6,0.8-1.3,0.8-2.1
			s-0.3-1.6-0.8-2.2c-0.5-0.6-1.2-0.9-2.1-0.9s-1.6,0.3-2.1,0.9C218.8,200.5,218.6,201.3,218.6,202.1z"/>
		<path class="st4" d="M247.6,210.8v-2.1c-0.7,0.8-1.5,1.5-2.4,1.9c-0.9,0.5-2,0.7-3.1,0.7c-1.6,0-3-0.4-4.2-1.2s-2.2-1.9-2.8-3.3
			c-0.7-1.4-1-3-1-4.7s0.3-3.3,1-4.7s1.6-2.5,2.8-3.3s2.6-1.2,4.2-1.2c1.1,0,2.2,0.2,3.1,0.7c0.9,0.5,1.7,1.1,2.4,1.9V185h8.1v25.8
			H247.6z M242.1,202.1c0,0.8,0.3,1.5,0.8,2.1s1.2,0.9,2.1,0.9c0.9,0,1.6-0.3,2.1-0.9c0.5-0.6,0.8-1.3,0.8-2.1s-0.3-1.6-0.8-2.2
			c-0.5-0.6-1.2-0.9-2.1-0.9c-0.9,0-1.6,0.3-2.1,0.9C242.4,200.5,242.1,201.3,242.1,202.1z"/>
		<path class="st4" d="M278.6,197.5c0.8,1.5,1.3,3.1,1.3,4.9c0,0.5,0,1-0.1,1.6h-13.1c0.5,1.5,1.6,2.3,3.5,2.3
			c0.9,0,1.7-0.1,2.6-0.4s1.7-0.7,2.6-1.3l3.5,3.8c-1.3,1.1-2.7,1.9-4.1,2.4s-3,0.7-4.8,0.7c-2.5,0-4.5-0.4-6.3-1.2
			c-1.7-0.8-3-1.9-3.9-3.3c-0.9-1.4-1.3-3-1.3-4.7c0-1.8,0.4-3.4,1.3-4.8s2.2-2.6,3.8-3.4s3.5-1.2,5.6-1.2c2.2,0,4,0.4,5.6,1.3
			C276.6,194.9,277.8,196.1,278.6,197.5z M272.4,200.2c-0.4-1.9-1.3-2.8-2.9-2.8s-2.6,0.9-3,2.8H272.4z"/>
		<path class="st4" d="M307.5,191.7c1.2,2,1.9,4.2,1.9,6.7c0,2.2-0.5,4.2-1.4,5.9c-0.9,1.8-2.3,3.3-3.9,4.5l5.8,2.1l-3.7,7.1
			l-16.9-7.8c-2.4-1.1-4.3-2.7-5.7-4.7c-1.4-2.1-2.1-4.4-2.1-7.1c0-2.5,0.6-4.7,1.9-6.7c1.2-2,2.9-3.6,5.1-4.7
			c2.1-1.1,4.5-1.7,7-1.7c2.6,0,4.9,0.6,7.1,1.7C304.6,188.1,306.3,189.7,307.5,191.7z M290.8,195.5c-0.5,0.8-0.7,1.8-0.7,2.8
			s0.2,2,0.7,2.8s1.1,1.5,1.9,1.9c0.8,0.5,1.7,0.7,2.7,0.7s1.9-0.2,2.7-0.7c0.8-0.5,1.5-1.1,1.9-1.9c0.5-0.8,0.7-1.8,0.7-2.8
			s-0.2-2-0.7-2.8s-1.1-1.5-1.9-1.9c-0.8-0.5-1.7-0.7-2.7-0.7s-1.9,0.2-2.7,0.7C291.9,194.1,291.3,194.7,290.8,195.5z"/>
		<path class="st4" d="M323.9,210.8V208c-0.6,1.1-1.4,1.9-2.4,2.5s-2.1,0.9-3.3,0.9c-1.1,0-2.2-0.2-3.1-0.7s-1.7-1.2-2.3-2.2
			c-0.6-1-0.9-2.2-0.9-3.7v-11.3h8.1v9c0,0.6,0.1,1.2,0.3,1.6c0.2,0.5,0.7,0.7,1.5,0.7c0.7,0,1.3-0.3,1.6-0.8s0.5-1.3,0.5-2.3v-8.3
			h8.1v17.3h-8.1V210.8z"/>
		<path class="st4" d="M354.8,197.5c0.8,1.5,1.3,3.1,1.3,4.9c0,0.5,0,1-0.1,1.6h-13.1c0.5,1.5,1.6,2.3,3.5,2.3
			c0.9,0,1.7-0.1,2.6-0.4c0.8-0.3,1.7-0.7,2.6-1.3l3.5,3.8c-1.3,1.1-2.7,1.9-4.1,2.4s-3,0.7-4.8,0.7c-2.5,0-4.5-0.4-6.3-1.2
			s-3-1.9-3.9-3.3c-0.9-1.4-1.3-3-1.3-4.7c0-1.8,0.4-3.4,1.3-4.8s2.2-2.6,3.8-3.4c1.6-0.8,3.5-1.2,5.6-1.2c2.2,0,4,0.4,5.6,1.3
			C352.7,194.9,353.9,196.1,354.8,197.5z M348.5,200.2c-0.4-1.9-1.3-2.8-2.9-2.8s-2.6,0.9-3,2.8H348.5z"/>
		<path class="st4" d="M375.7,194.9l-2.3,3.9c-0.7-0.4-1.6-0.7-2.6-1c-1.1-0.2-2.1-0.4-3.1-0.4c-0.5,0-0.8,0-1,0.1s-0.2,0.2-0.2,0.4
			c0,0.4,0.8,0.8,2.4,1.1c1.7,0.4,3,0.7,4.1,1.1c1,0.4,2,0.9,2.7,1.7c0.8,0.8,1.1,1.9,1.1,3.2c0,2.3-1,4-3.1,4.9s-4.4,1.4-6.9,1.4
			c-2.1,0-4-0.3-5.6-1s-2.9-1.3-3.8-2l2.5-4.2c0.9,0.6,1.9,1.2,3,1.6c1.1,0.4,2.3,0.6,3.5,0.6c1.6,0,2.4-0.2,2.4-0.7
			c0-0.2-0.1-0.4-0.4-0.5s-0.8-0.2-1.6-0.4l-1.3-0.2c-4.1-0.9-6.2-2.9-6.2-5.9c0-1.9,0.8-3.3,2.3-4.4c1.5-1.1,3.6-1.6,6.1-1.6
			c1.7,0,3.2,0.2,4.5,0.5C373.7,193.7,374.8,194.2,375.7,194.9z"/>
		<path class="st4" d="M394.3,193.5v6.4h-4.8v3.3c0,0.7,0.2,1.1,0.6,1.4c0.4,0.3,1,0.4,1.9,0.4c0.4,0,0.8,0,1.2-0.1
			c0.4,0,0.7-0.1,1-0.1l0.2,5.6c-0.3,0.2-1.1,0.3-2.2,0.5s-2.2,0.2-3.2,0.2c-2.5,0-4.3-0.6-5.7-1.8s-2-3-2-5.4v-4.1h-3v-6.4h3v-5.7
			h8.1v5.7h4.9V193.5z"/>
	</g>
</g>
</svg>
